PathFileType	4	(X/Y/Z)	c:/Users/goper/Files/vsCode/490R/osim_files/C12/C12_Slow_06.trc
DataRate	CameraRate	NumFrames	NumMarkers	Units                	OrigDataRate	OrigDataStartFrame	OrigNumFrames
120.00	120.00	7	36	mm	120.0	654	1306
                Frame#	Time	LPSIS			LASIS			LTH1			LTH2			LTH3			LTH4			LLFE			LMFE			LSH1			LSH2			LSH3			LSH4			LLMAL			LMMAL			LCAL			LMTP5			LTOE			LMTP1			RPSIS			RASIS			RTH1			RTH2			RTH3			RTH4			RLFE			RMFE			RSH1			RSH2			RSH3			RSH4			RLMAL			RMMAL			RCAL			RMTP1			RTOE			RMTP5		
		X1	Y1	Z1	X2	Y2	Z2	X3	Y3	Z3	X4	Y4	Z4	X5	Y5	Z5	X6	Y6	Z6	X7	Y7	Z7	X8	Y8	Z8	X9	Y9	Z9	X10	Y10	Z10	X11	Y11	Z11	X12	Y12	Z12	X13	Y13	Z13	X14	Y14	Z14	X15	Y15	Z15	X16	Y16	Z16	X17	Y17	Z17	X18	Y18	Z18	X19	Y19	Z19	X20	Y20	Z20	X21	Y21	Z21	X22	Y22	Z22	X23	Y23	Z23	X24	Y24	Z24	X25	Y25	Z25	X26	Y26	Z26	X27	Y27	Z27	X28	Y28	Z28	X29	Y29	Z29	X30	Y30	Z30	X31	Y31	Z31	X32	Y32	Z32	X33	Y33	Z33	X34	Y34	Z34	X35	Y35	Z35	X36	Y36	Z36

654	5.44167	532.52533	1068.22131	400.54681	361.10577	1013.57416	473.01288	512.82819	751.00763	502.40430	518.60004	708.27246	499.98978	454.26538	741.87573	509.88019	465.44205	698.27783	504.18292	529.07440	528.25104	454.67902	529.29510	526.09277	327.37396	606.62836	447.32727	470.81842	613.80103	399.74893	475.42313	548.48883	431.59430	462.11685	564.91486	387.25278	465.53705	661.12903	110.97252	419.48679	654.82257	114.77818	343.54156	731.98065	90.93227	386.41467	537.72827	35.19893	438.27798	486.53665	60.79358	365.78729	523.49213	35.28890	325.33838	539.54773	1061.42114	285.69919	356.93683	1028.09546	217.34238	364.97659	744.82501	144.84660	343.67319	704.73700	150.99728	309.28235	768.34369	153.75807	297.05627	718.68842	155.08824	270.14548	543.34869	190.73079	268.37482	540.70929	326.40717	302.52170	438.41995	168.38332	289.19519	398.58301	159.02370	240.74304	450.50928	172.01379	238.33508	407.67822	161.98430	181.33452	118.09405	189.85361	163.99854	136.18674	270.86697	234.26222	61.97860	235.39252	23.32744	107.99043	266.57959	-6.86684	140.12561	231.21376	19.07238	98.66451	161.56078
655	5.45000	523.48419	1066.53040	399.09384	352.24850	1012.05957	472.37177	507.18314	751.13745	502.03506	513.07825	708.42279	499.29868	447.74371	741.01141	508.77744	459.76581	697.79047	503.42590	525.08185	528.19110	454.55734	524.94122	525.81964	327.24811	603.52893	447.88229	470.60004	611.10724	400.43842	475.21832	545.32410	431.61826	462.15366	562.31244	387.48053	465.59457	660.53210	111.74103	419.51816	654.12872	115.58586	343.60001	731.13190	91.85288	386.37717	537.68311	34.96626	438.23480	486.28558	60.58096	365.88571	523.36975	35.21382	325.41864	529.90289	1059.25195	284.21680	346.90988	1025.57458	216.56616	357.29962	741.21753	144.83661	336.39606	700.93695	151.09996	300.99860	764.79944	154.19508	288.72699	715.07489	155.65559	261.84341	539.45404	191.22319	263.18723	536.89062	327.36765	291.04095	434.40485	168.05623	273.56293	393.95398	161.11725	229.15819	448.84021	172.83159	225.24948	405.82047	162.50154	154.24631	119.56599	189.81277	138.62291	137.80124	270.73877	205.35709	61.13949	234.38097	-3.39104	115.71765	267.91678	-32.37214	150.06892	233.26616	-9.18418	108.15047	162.50833
656	5.45833	514.31226	1064.81433	397.46442	343.25668	1010.71716	471.76703	500.93567	751.14899	501.16531	506.79767	708.18640	498.43152	441.51465	740.44537	507.84973	453.96609	697.33295	502.60236	520.85620	528.14435	454.44141	520.37469	525.52631	327.13562	600.21271	448.55420	470.27859	608.22101	401.13953	474.95993	542.16931	431.76343	462.12811	558.98395	387.72623	466.03265	659.89032	112.65026	419.47467	653.44696	116.42645	343.60748	731.03577	93.26691	386.21658	537.63904	34.86675	438.29318	486.12500	60.40650	365.91748	523.21338	35.13874	325.50183	520.14191	1056.83594	282.71774	336.81894	1023.16266	215.91316	349.67838	737.62988	144.80084	329.11963	697.20685	151.04575	292.50705	761.26440	154.55357	280.18338	711.53754	156.15396	254.09709	536.12152	191.35521	257.74744	533.21106	328.28506	277.30560	429.13501	170.31293	259.87402	390.70462	161.33180	217.98595	447.61456	173.20908	209.60687	405.99808	163.23276	128.52855	121.53725	190.21384	114.47583	140.18839	271.39871	177.44223	60.86238	234.20593	-28.50912	124.33104	269.54211	-56.28886	160.09605	235.21323	-34.19965	117.21832	164.45262
657	5.46667	504.95993	1062.96399	395.85364	334.21640	1009.30884	471.27539	494.43338	751.08362	500.33411	500.69955	708.16400	497.61176	435.16379	739.89362	507.08057	447.94604	696.85199	501.79153	516.32092	528.09253	454.28369	515.06921	525.03925	327.00870	596.59711	449.18625	469.92819	605.11450	401.91107	474.67361	538.69916	431.72464	462.15851	555.77582	388.06744	466.27097	659.26208	113.59666	419.48868	652.29663	117.06522	343.21075	730.40808	94.59159	386.06799	538.08539	34.75721	438.60281	485.96945	60.22516	365.96326	523.04761	35.03508	325.59055	510.33676	1054.25159	281.15451	326.58920	1020.59204	215.25252	341.67856	734.14673	144.68605	321.52917	693.48334	150.94324	283.73972	757.79407	154.83916	271.36774	708.13226	156.57875	246.24225	533.04565	191.28697	251.79422	529.05646	328.72327	265.79761	426.06976	170.30373	246.31874	387.62543	161.42328	206.49106	446.07938	173.28276	197.40823	404.87579	163.46036	104.55982	123.88406	191.05249	91.60324	142.93401	272.31662	150.55275	60.76000	235.05742	-51.94176	132.62862	271.19083	-78.42999	169.72238	237.06123	-59.48018	125.73948	164.50711
658	5.47500	495.48053	1060.94556	394.32623	324.78583	1007.94757	470.92160	487.69040	750.94458	499.45520	494.36801	708.17755	496.81305	428.56128	739.28223	506.42404	441.72229	696.36920	501.17905	511.26282	527.98010	454.05115	509.57880	524.69220	326.79245	592.59406	449.82156	469.45966	601.69989	402.61890	474.32941	535.64154	431.20901	461.95068	553.18323	387.94589	465.17853	658.52045	114.54178	419.46704	651.45380	118.04874	343.26529	731.12335	96.84100	385.68637	537.71350	34.93272	438.67883	485.94940	60.12335	365.95490	523.15234	35.43007	325.28497	500.41000	1051.53333	279.52515	316.26678	1018.06195	214.77437	333.33185	730.91394	144.53650	313.56595	689.92255	150.86789	274.62860	754.44385	155.05733	262.22260	704.91547	156.92529	237.84056	530.08069	191.13510	245.49924	525.41339	329.14288	254.19891	423.01462	169.93697	233.34772	385.30615	161.34155	195.53004	444.56772	173.32907	184.95900	404.04706	163.60600	82.53797	126.40173	192.20262	70.20510	145.79219	273.61142	126.35347	61.66732	236.16415	-73.46600	140.74292	272.98099	-98.97614	178.65659	238.73419	-81.88767	134.08252	167.06978
659	5.48333	485.84631	1058.88745	392.62994	315.25220	1006.47858	470.63257	480.86487	750.89453	498.51788	487.93408	708.10907	496.02792	421.92337	738.61688	505.80545	435.30478	695.84668	500.61050	505.99142	527.73071	453.90555	503.60947	524.21741	326.61887	588.23950	450.42221	469.00113	597.88831	403.35458	473.90039	530.82867	431.57538	461.97345	549.46124	388.07205	465.12952	657.64832	115.63624	419.31833	650.33167	119.04877	343.08698	730.33221	98.41748	385.52887	537.24951	35.11074	438.66043	485.70917	59.85623	365.92166	522.93707	35.32021	325.28983	490.43338	1048.74194	277.91348	306.72684	1015.34583	214.31712	324.36722	727.87085	144.39813	305.14056	686.70801	150.76524	265.10565	751.26923	155.21361	252.69025	701.94287	157.18895	228.79779	527.31146	190.95581	238.34418	522.07147	329.02756	242.76294	420.11865	169.52992	220.52611	382.77127	161.25482	184.33232	442.87805	173.43848	172.47240	402.76541	163.91393	62.01363	128.03313	194.05815	50.35211	148.51778	275.07462	103.85477	62.26263	238.32805	-93.63084	147.76825	274.19849	-117.63075	186.48706	239.91554	-102.14088	140.49835	168.56714
660	5.49167	476.14825	1056.67639	390.93835	305.01926	1005.35675	470.58362	473.00421	750.44159	497.16266	481.10980	707.97424	495.03595	414.91324	738.01685	505.26913	428.64386	695.27264	500.14124	500.17215	527.41644	453.75388	497.20883	523.66162	326.39069	583.48804	451.02966	468.55753	593.67749	404.04230	473.54538	526.06757	431.56418	461.75067	545.43652	388.16843	464.95374	656.71216	116.81960	419.28705	649.33826	120.07552	342.96640	729.70068	100.17870	385.29962	536.80756	35.31460	438.61670	485.74170	59.81002	365.69907	522.69531	34.94325	325.45709	480.54080	1045.92188	276.26105	295.51251	1013.09442	213.74496	314.54034	725.18420	144.26108	295.76392	683.90302	150.57231	255.10294	748.32581	155.31355	242.71320	699.27081	157.36510	219.01956	524.82275	190.80519	229.96811	519.13678	328.63666	230.96970	417.14157	169.18169	207.71251	380.28308	161.23880	173.31026	441.46094	173.61363	159.98503	401.44601	164.38153	42.59584	128.92494	195.78073	32.39676	150.74908	276.69678	83.54778	62.53929	240.89450	-111.19152	154.10927	275.81357	-134.49307	192.90990	240.70724	-120.34332	145.09212	170.21693
